# File produced by Open Asset Import Library (http://www.assimp.sf.net)
# (assimp v3.1.95221606)

mtllib wooden%20texture.mtl

# vertex positions
v -1.020000 0.000000 0.364000
v -0.945000 0.000000 0.289000
v -0.945000 0.000000 0.364000
v -1.020000 0.000000 0.289000
v -0.945000 0.800000 0.364000
v -1.020000 0.800000 0.289000
v -1.020000 0.800000 0.364000
v -0.945000 0.800000 0.289000
v 0.945000 0.000000 0.364000
v 1.020000 0.000000 0.289000
v 1.020000 0.000000 0.364000
v 0.945000 0.000000 0.289000
v 1.020000 0.800000 0.364000
v 0.945000 0.800000 0.289000
v 0.945000 0.800000 0.364000
v 1.020000 0.800000 0.289000
v -1.020000 0.000000 -0.289000
v -0.945000 0.000000 -0.364000
v -0.945000 0.000000 -0.289000
v -1.020000 0.000000 -0.364000
v -0.945000 0.800000 -0.289000
v -1.020000 0.800000 -0.364000
v -1.020000 0.800000 -0.289000
v -0.945000 0.800000 -0.364000
v 0.945000 0.000000 -0.289000
v 1.020000 0.000000 -0.364000
v 1.020000 0.000000 -0.289000
v 0.945000 0.000000 -0.364000
v 1.020000 0.800000 -0.289000
v 0.945000 0.800000 -0.364000
v 0.945000 0.800000 -0.289000
v 1.020000 0.800000 -0.364000
v 1.001250 0.205000 0.352750
v 1.001250 0.160000 0.352750
v 1.001250 0.160000 -0.326500
v 1.001250 0.205000 -0.326500
v 0.956250 0.205000 0.307750
v 0.956250 0.205000 -0.326500
v 0.956250 0.160000 0.307750
v 0.956250 0.160000 -0.326500
v -1.001250 0.205000 0.352750
v -1.001250 0.160000 0.352750
v -0.956250 0.205000 0.307750
v -0.956250 0.160000 0.307750
v -1.001250 0.205000 -0.326500
v -1.001250 0.160000 -0.326500
v -0.956250 0.205000 -0.326500
v -0.956250 0.160000 -0.326500
v 1.020000 0.865000 0.364000
v -1.020000 0.865000 -0.364000
v -1.020000 0.865000 0.364000
v 1.020000 0.865000 -0.364000

# UV coordinates
vt 0.843040 0.504355
vt 0.856451 0.490945
vt 0.856451 0.504355
vt 0.843040 0.490945
vt 0.856451 0.647405
vt 0.843040 0.660816
vt 0.843040 0.647405
vt 0.856451 0.660816
vt 0.829629 0.504355
vt 0.829629 0.647405
vt 0.869862 0.647405
vt 0.869862 0.504355
vt 0.999500 0.647405
vt 0.999500 0.504355
vt 0.843040 0.675227
vt 0.856451 0.661816
vt 0.856451 0.675227
vt 0.843040 0.661816
vt 0.856451 0.818276
vt 0.843040 0.831687
vt 0.843040 0.818276
vt 0.856451 0.831687
vt 0.829629 0.675227
vt 0.829629 0.818276
vt 0.869862 0.818276
vt 0.869862 0.675227
vt 0.999500 0.818276
vt 0.999500 0.675227
vt 0.672169 0.523466
vt 0.685580 0.510055
vt 0.685580 0.523466
vt 0.672169 0.510055
vt 0.685580 0.666515
vt 0.672169 0.679926
vt 0.672169 0.666515
vt 0.685580 0.679926
vt 0.658758 0.523466
vt 0.658758 0.666515
vt 0.698991 0.666515
vt 0.698991 0.523466
vt 0.828629 0.666515
vt 0.828629 0.523466
vt 0.501298 0.523466
vt 0.514709 0.510055
vt 0.514709 0.523466
vt 0.501298 0.510055
vt 0.514709 0.666515
vt 0.501298 0.679926
vt 0.501298 0.666515
vt 0.514709 0.679926
vt 0.487887 0.523466
vt 0.487887 0.666515
vt 0.528120 0.666515
vt 0.528120 0.523466
vt 0.657758 0.666515
vt 0.657758 0.523466
vt 0.607644 0.429529
vt 0.607644 0.489945
vt 0.510055 0.489945
vt 0.510055 0.429529
vt 0.607644 0.369113
vt 0.510055 0.369113
vt 0.607644 0.308697
vt 0.510055 0.308697
vt 0.607644 0.248281
vt 0.510055 0.248281
vt 0.901911 0.429529
vt 0.901911 0.489945
vt 0.901911 0.369113
vt 0.901911 0.308697
vt 0.901911 0.248281
vt 0.999500 0.429529
vt 0.999500 0.489945
vt 0.999500 0.369113
vt 0.999500 0.308697
vt 0.999500 0.248281
vt 0.748660 0.239104
vt 0.510055 0.239104
vt 0.510055 0.000500
vt 0.748660 0.000500
vt 0.760896 0.000500
vt 0.760896 0.239104
vt 0.999500 0.239104
vt 0.999500 0.000500
vt 0.067376 0.067376
vt 0.254778 0.000500
vt 0.254778 0.067376
vt 0.067376 0.000500
vt 0.254778 0.073348
vt 0.067376 0.140224
vt 0.067376 0.073348
vt 0.254778 0.140224
vt 0.000500 0.067376
vt 0.000500 0.073348
vt 0.321654 0.073348
vt 0.321654 0.067376
vt 0.509055 0.073348
vt 0.509055 0.067376

# vertex normals
vn 0.000000 -1.000000 0.000000
vn 0.000000 1.000000 0.000000
vn -1.000000 0.000000 0.000000
vn 1.000000 0.000000 0.000000
vn 0.000000 0.000000 1.000000
vn 0.000000 0.000000 -1.000000
vn 0.261624 0.884776 0.385648
vn 0.118237 -0.707107 0.697151
vn 0.707107 -0.707107 0.000000
vn 0.459345 0.888258 0.000000
vn -0.125748 0.639596 -0.758356
vn -0.894427 0.447213 0.000000
vn -0.248953 -0.892827 -0.375344
vn -0.434831 -0.900512 0.000000
vn -0.129534 0.632368 0.763762
vn -0.396974 -0.707107 0.585160
vn 0.248953 0.892827 -0.375344
vn 0.125748 -0.639596 -0.758356
vn -0.707107 -0.707107 0.000000
vn 0.434831 0.900512 0.000000
vn 0.894427 -0.447213 0.000000

# Mesh
g defaultobject
usemtl DefaultMaterial
f 1/1/1 2/2/1 3/3/1
f 1/1/1 4/4/1 2/2/1
f 5/5/2 6/6/2 7/7/2
f 5/5/2 8/8/2 6/6/2
f 7/7/3 4/9/3 1/1/3
f 7/7/3 6/10/3 4/9/3
f 8/11/4 3/3/4 2/12/4
f 8/11/4 5/5/4 3/3/4
f 5/5/5 1/1/5 3/3/5
f 5/5/5 7/7/5 1/1/5
f 6/13/6 2/12/6 4/14/6
f 6/13/6 8/11/6 2/12/6
f 9/15/1 10/16/1 11/17/1
f 9/15/1 12/18/1 10/16/1
f 13/19/2 14/20/2 15/21/2
f 13/19/2 16/22/2 14/20/2
f 15/21/3 12/23/3 9/15/3
f 15/21/3 14/24/3 12/23/3
f 16/25/4 11/17/4 10/26/4
f 16/25/4 13/19/4 11/17/4
f 13/19/5 9/15/5 11/17/5
f 13/19/5 15/21/5 9/15/5
f 14/27/6 10/26/6 12/28/6
f 14/27/6 16/25/6 10/26/6
f 17/29/1 18/30/1 19/31/1
f 17/29/1 20/32/1 18/30/1
f 21/33/2 22/34/2 23/35/2
f 21/33/2 24/36/2 22/34/2
f 23/35/3 20/37/3 17/29/3
f 23/35/3 22/38/3 20/37/3
f 24/39/4 19/31/4 18/40/4
f 24/39/4 21/33/4 19/31/4
f 21/33/5 17/29/5 19/31/5
f 21/33/5 23/35/5 17/29/5
f 22/41/6 18/40/6 20/42/6
f 22/41/6 24/39/6 18/40/6
f 25/43/1 26/44/1 27/45/1
f 25/43/1 28/46/1 26/44/1
f 29/47/2 30/48/2 31/49/2
f 29/47/2 32/50/2 30/48/2
f 31/49/3 28/51/3 25/43/3
f 31/49/3 30/52/3 28/51/3
f 32/53/4 27/45/4 26/54/4
f 32/53/4 29/47/4 27/45/4
f 29/47/5 25/43/5 27/45/5
f 29/47/5 31/49/5 25/43/5
f 30/55/6 26/54/6 28/56/6
f 30/55/6 32/53/6 26/54/6
f 33/57/7 34/58/8 35/59/9
f 36/60/10 33/57/7 35/59/9
f 37/61/11 33/57/7 36/60/10
f 38/62/12 37/61/11 36/60/10
f 39/63/13 37/61/11 38/62/12
f 40/64/14 39/63/13 38/62/12
f 34/65/8 39/63/13 40/64/14
f 35/66/9 34/65/8 40/64/14
f 41/67/15 42/68/16 34/58/8
f 33/57/7 41/67/15 34/58/8
f 43/69/17 41/67/15 33/57/7
f 37/61/11 43/69/17 33/57/7
f 44/70/18 43/69/17 37/61/11
f 39/63/13 44/70/18 37/61/11
f 42/71/16 44/70/18 39/63/13
f 34/65/8 42/71/16 39/63/13
f 45/72/12 46/73/19 42/68/16
f 41/67/15 45/72/12 42/68/16
f 47/74/20 45/72/12 41/67/15
f 43/69/17 47/74/20 41/67/15
f 48/75/21 47/74/20 43/69/17
f 44/70/18 48/75/21 43/69/17
f 46/76/19 48/75/21 44/70/18
f 42/71/16 46/76/19 44/70/18
f 38/77/6 36/78/6 35/79/6
f 40/80/6 38/77/6 35/79/6
f 46/81/6 45/82/6 47/83/6
f 46/81/6 47/83/6 48/84/6
f 7/85/1 32/86/1 13/87/1
f 7/85/1 22/88/1 32/86/1
f 49/89/2 50/90/2 51/91/2
f 49/89/2 52/92/2 50/90/2
f 51/91/3 22/93/3 7/85/3
f 51/91/3 50/94/3 22/93/3
f 52/95/4 13/87/4 32/96/4
f 52/95/4 49/89/4 13/87/4
f 49/89/5 7/85/5 13/87/5
f 49/89/5 51/91/5 7/85/5
f 50/97/6 32/96/6 22/98/6
f 50/97/6 52/95/6 32/96/6
